<?xml version="1.0" ?><svg id="Layer_1" style="enable-background:new 0 0 100 100;" version="1.1" viewBox="0 0 100 100" xml:space="preserve" xmlns="http://www.w3.org/2000/svg" xmlns:xlink="http://www.w3.org/1999/xlink"><style type="text/css">
	.st0{fill:url(#Background_13_);}
	.st1{fill:url(#path-2_7_);}
	.st2{filter:url(#Adobe_OpacityMaskFilter);}
	.st3{fill:#FFFFFF;}
	.st4{mask:url(#mask-3_1_);fill:#FFFFFF;}
	.st5{fill:url(#SVGID_1_);}
	.st6{fill:#1E1E1F;}
	.st7{fill:url(#Oval_6_);}
	.st8{stroke:#000000;stroke-width:0.3;}
	.st9{fill:#2B2A2A;}
	.st10{fill:#FF9500;}
	.st11{fill:url(#Background_14_);}
	.st12{fill:url(#path-2_8_);}
	.st13{filter:url(#Adobe_OpacityMaskFilter_1_);}
	.st14{mask:url(#mask-3_2_);}
	.st15{fill:#FFFFFF;fill-opacity:0.7;}
	.st16{fill:url(#Background_15_);}
	.st17{fill:url(#Background_16_);}
	.st18{fill:url(#Background_17_);}
	.st19{filter:url(#Adobe_OpacityMaskFilter_2_);}
	.st20{mask:url(#mask-2_6_);fill-opacity:0.29;}
	.st21{filter:url(#Adobe_OpacityMaskFilter_3_);}
	.st22{mask:url(#mask-2_5_);}
	.st23{fill:url(#path-4_2_);}
	.st24{filter:url(#Adobe_OpacityMaskFilter_4_);}
	.st25{mask:url(#mask-2_4_);}
	.st26{fill:#AAAAAA;}
	.st27{fill:url(#Background_18_);}
	.st28{fill:#141416;}
	.st29{filter:url(#Adobe_OpacityMaskFilter_5_);}
	.st30{mask:url(#mask-2_3_);fill:url(#Chart_1_);stroke:#FFFFFF;stroke-width:0.75;}
	.st31{filter:url(#Adobe_OpacityMaskFilter_6_);}
	.st32{mask:url(#mask-2_2_);}
	.st33{fill:#01A6F1;}
	.st34{filter:url(#Adobe_OpacityMaskFilter_7_);}
	.st35{mask:url(#mask-2_1_);fill:#777778;}
	.st36{fill:url(#Background_19_);}
	.st37{fill:#2E2E30;}
	.st38{fill:#7F7F7F;}
	.st39{fill:#777777;}
	.st40{fill:none;}
	.st41{fill:url(#SVGID_2_);}
	.st42{fill:url(#Oval_7_);}
	.st43{filter:url(#Adobe_OpacityMaskFilter_8_);}
	.st44{mask:url(#mask-3_3_);fill:#FF1414;}
	.st45{filter:url(#Adobe_OpacityMaskFilter_9_);}
	.st46{mask:url(#mask-2_8_);}
	.st47{fill:#1BADF8;}
	.st48{fill:#63DA38;}
	.st49{filter:url(#Adobe_OpacityMaskFilter_10_);}
	.st50{mask:url(#mask-2_7_);}
	.st51{fill:#B7B7B7;}
	.st52{filter:url(#Adobe_OpacityMaskFilter_11_);}
	.st53{mask:url(#mask-2_24_);fill:url(#Red_1_);}
	.st54{filter:url(#Adobe_OpacityMaskFilter_12_);}
	.st55{mask:url(#mask-2_23_);fill:url(#Orange_1_);}
	.st56{filter:url(#Adobe_OpacityMaskFilter_13_);}
	.st57{mask:url(#mask-2_22_);fill:url(#Yellow_1_);}
	.st58{filter:url(#Adobe_OpacityMaskFilter_14_);}
	.st59{mask:url(#mask-2_21_);fill:url(#Green_1_);}
	.st60{filter:url(#Adobe_OpacityMaskFilter_15_);}
	.st61{mask:url(#mask-2_20_);fill:url(#Turquoise_1_);}
	.st62{filter:url(#Adobe_OpacityMaskFilter_16_);}
	.st63{mask:url(#mask-2_19_);fill:url(#Blue_1_);}
	.st64{filter:url(#Adobe_OpacityMaskFilter_17_);}
	.st65{mask:url(#mask-2_18_);fill:url(#Purple_1_);}
	.st66{filter:url(#Adobe_OpacityMaskFilter_18_);}
	.st67{mask:url(#mask-2_17_);fill:url(#Pink_1_);}
	.st68{fill:url(#Background_20_);}
	.st69{fill:#353535;}
	.st70{fill:url(#SVGID_3_);}
</style><g id="Symbols_7_"><g id="Graphics-_x2F_-App-Icons-_x2F_-Stocks-"><g id="Stocks-Icon"><g id="Background_8_"><path class="st28" d="M63.4,5.7c8.9,0,13.3,0,18.1,1.5c5.2,1.9,9.3,6,11.2,11.2c1.5,4.8,1.5,9.2,1.5,18.1v26.8      c0,8.9,0,13.3-1.5,18.1c-1.9,5.2-6,9.3-11.2,11.2c-4.8,1.5-9.2,1.5-18.1,1.5H36.6c-8.9,0-13.3,0-18.1-1.5      c-5.2-1.9-9.3-6-11.2-11.2c-1.5-4.8-1.5-9.2-1.5-18.1V36.6c0-8.9,0-13.3,1.5-18.1c1.9-5.2,6-9.3,11.2-11.2      c4.8-1.5,9.2-1.5,18.1-1.5H63.4z" id="path-1_8_"/></g><defs><filter filterUnits="userSpaceOnUse" height="63.9" id="Adobe_OpacityMaskFilter" width="90.5" x="4.6" y="31.4"><feColorMatrix type="matrix" values="1 0 0 0 0  0 1 0 0 0  0 0 1 0 0  0 0 0 1 0"/></filter></defs><mask height="63.9" id="mask-2_3_" maskUnits="userSpaceOnUse" width="90.5" x="4.6" y="31.4"><g class="st2"><path class="st3" d="M63.4,5.7c8.9,0,13.3,0,18.1,1.5c5.2,1.9,9.3,6,11.2,11.2c1.5,4.8,1.5,9.2,1.5,18.1v26.8       c0,8.9,0,13.3-1.5,18.1c-1.9,5.2-6,9.3-11.2,11.2c-4.8,1.5-9.2,1.5-18.1,1.5H36.6c-8.9,0-13.3,0-18.1-1.5       c-5.2-1.9-9.3-6-11.2-11.2c-1.5-4.8-1.5-9.2-1.5-18.1V36.6c0-8.9,0-13.3,1.5-18.1c1.9-5.2,6-9.3,11.2-11.2       c4.8-1.5,9.2-1.5,18.1-1.5H63.4z" id="path-1_4_"/></g></mask><linearGradient gradientTransform="matrix(60.8306 0 0 -42.3468 4127.8242 26636.4922)" gradientUnits="userSpaceOnUse" id="Chart_1_" x1="-67.0379" x2="-67.0379" y1="628.241" y2="626.765"><stop offset="0" style="stop-color:#454545"/><stop offset="1" style="stop-color:#111112"/></linearGradient><path class="st30" d="M5,56c0,0,2.6,0,5.3,0.9c2.3,0.7,4.7,2.4,6.1,2.3c3-0.2,6.1-1.2,6.1-1.2l5.6-7.3l5.3,4.5     l5.6-13.1l5.4,14.3l6.1,3.7l5.5-9.8l5.3-1.4l5.7-16.4l5.5,13.4l5.6-3.7L83.6,53l5.3-12.1l5.9-6.1V95H5.2L5,56z" id="Chart"/><defs><filter filterUnits="userSpaceOnUse" height="95.2" id="Adobe_OpacityMaskFilter_1_" width="6.6" x="63.3" y="3.5"><feColorMatrix type="matrix" values="1 0 0 0 0  0 1 0 0 0  0 0 1 0 0  0 0 0 1 0"/></filter></defs><mask height="95.2" id="mask-2_2_" maskUnits="userSpaceOnUse" width="6.6" x="63.3" y="3.5"><g class="st13"><path class="st3" d="M63.4,5.7c8.9,0,13.3,0,18.1,1.5c5.2,1.9,9.3,6,11.2,11.2c1.5,4.8,1.5,9.2,1.5,18.1v26.8       c0,8.9,0,13.3-1.5,18.1c-1.9,5.2-6,9.3-11.2,11.2c-4.8,1.5-9.2,1.5-18.1,1.5H36.6c-8.9,0-13.3,0-18.1-1.5       c-5.2-1.9-9.3-6-11.2-11.2c-1.5-4.8-1.5-9.2-1.5-18.1V36.6c0-8.9,0-13.3,1.5-18.1c1.9-5.2,6-9.3,11.2-11.2       c4.8-1.5,9.2-1.5,18.1-1.5H63.4z" id="path-1_3_"/></g></mask><g class="st32" id="Line"><g><path d="M66.9,29.4V3.5h-0.7v25.8c0.1,0,0.2,0,0.4,0S66.8,29.4,66.9,29.4z M66.9,37.5v61.3h-0.7V37.5       c0.1,0,0.2,0,0.4,0S66.8,37.5,66.9,37.5z M66.6,36.7c-1.8,0-3.3-1.5-3.3-3.3s1.5-3.3,3.3-3.3c1.8,0,3.3,1.5,3.3,3.3       S68.4,36.7,66.6,36.7z" id="path-4_16_"/></g><g><path class="st33" d="M66.9,29.4V3.5h-0.7v25.8c0.1,0,0.2,0,0.4,0S66.8,29.4,66.9,29.4z M66.9,37.5v61.3h-0.7       V37.5c0.1,0,0.2,0,0.4,0S66.8,37.5,66.9,37.5z M66.6,36.7c-1.8,0-3.3-1.5-3.3-3.3s1.5-3.3,3.3-3.3c1.8,0,3.3,1.5,3.3,3.3       S68.4,36.7,66.6,36.7z" id="path-4_1_"/></g></g><defs><filter filterUnits="userSpaceOnUse" height="95.2" id="Adobe_OpacityMaskFilter_2_" width="67.9" x="16" y="3.5"><feColorMatrix type="matrix" values="1 0 0 0 0  0 1 0 0 0  0 0 1 0 0  0 0 0 1 0"/></filter></defs><mask height="95.2" id="mask-2_1_" maskUnits="userSpaceOnUse" width="67.9" x="16" y="3.5"><g class="st19"><path class="st3" d="M63.4,5.7c8.9,0,13.3,0,18.1,1.5c5.2,1.9,9.3,6,11.2,11.2c1.5,4.8,1.5,9.2,1.5,18.1v26.8       c0,8.9,0,13.3-1.5,18.1c-1.9,5.2-6,9.3-11.2,11.2c-4.8,1.5-9.2,1.5-18.1,1.5H36.6c-8.9,0-13.3,0-18.1-1.5       c-5.2-1.9-9.3-6-11.2-11.2c-1.5-4.8-1.5-9.2-1.5-18.1V36.6c0-8.9,0-13.3,1.5-18.1c1.9-5.2,6-9.3,11.2-11.2       c4.8-1.5,9.2-1.5,18.1-1.5H63.4z" id="path-1_2_"/></g></mask><path class="st35" d="M16,3.5h0.7v95.2H16V3.5z M33,3.5h0.7v95.2H33V3.5z M50,3.5h0.7v95.2H50V3.5z M83.2,3.5h0.7     v95.2h-0.7V3.5z" id="Lines"/></g></g></g></svg>